PathFileType	4	(X/Y/Z)	C:/Users/opensim2020/Desktop/walking_exp_matlab/subject02_walking05_straight_03.trc																																																																																																																												
DataRate	CameraRate	NumFrames	NumMarkers	Units	OrigDataRate	OrigDataStartFrame	OrigNumFrames																																																																																																																								
100	100	5	42	mm	100	2133	224																																																																																																																								
Frame#	Time	LFHD			RFHD			LBHD			RBHD			C7			T10			CLAV			STRN			RBAK			LSHO			LUPA			LELB			LFRM			LWRA			LWRB			LFIN			RSHO			RUPA			RELB			RFRM			RWRA			RWRB			RFIN			LASI			RASI			LPSI			RPSI			LTHI			LKNE			LTIB			LANK			LHEE			LTOE			RTHI			RKNE			RTIB			RANK			RHEE			RTOE			*39			*40			*41		
		X1	Y1	Z1	X2	Y2	Z2	X3	Y3	Z3	X4	Y4	Z4	X5	Y5	Z5	X6	Y6	Z6	X7	Y7	Z7	X8	Y8	Z8	X9	Y9	Z9	X10	Y10	Z10	X11	Y11	Z11	X12	Y12	Z12	X13	Y13	Z13	X14	Y14	Z14	X15	Y15	Z15	X16	Y16	Z16	X17	Y17	Z17	X18	Y18	Z18	X19	Y19	Z19	X20	Y20	Z20	X21	Y21	Z21	X22	Y22	Z22	X23	Y23	Z23	X24	Y24	Z24	X25	Y25	Z25	X26	Y26	Z26	X27	Y27	Z27	X28	Y28	Z28	X29	Y29	Z29	X30	Y30	Z30	X31	Y31	Z31	X32	Y32	Z32	X33	Y33	Z33	X34	Y34	Z34	X35	Y35	Z35	X36	Y36	Z36	X37	Y37	Z37	X38	Y38	Z38	X39	Y39	Z39	X40	Y40	Z40	X41	Y41	Z41	X42	Y42	Z42
																																																																																																																															
57	0.56	-607.87634	1755.15063	-1067.36182	-622.47473	1740.87427	-925.06488	-715.66656	1650.72424	-1087.21204	-741.57666	1632.32813	-947.28485	-763.18182	1522.57007	-1004.25946	-812.12238	1248.48254	-1002.27844	-620.93042	1458.11475	-1018.40491	-565.45868	1287.16309	-1011.62805	-814.7547	1348.06763	-939.26605	-693.30225	1498.93811	-1186.73242	-699.64941	1298.96472	-1276.61011	-694.8938	1160.10803	-1294.48096	-675.74426	1031.20935	-1315.41101	-611.2616	909.38391	-1291.00806	-656.81708	910.24854	-1325.47144	-631.93378	849.41595	-1334.27002	-676.4939	1491.73059	-819.99371	-693.96881	1298.76123	-736.86176	-670.6803	1152.52002	-723.64063	-626.01038	1039.32849	-710.61371	-561.18823	922.17883	-738.4411	-605.54272	910.54193	-703.78284	-559.20831	853.99866	-706.26477	-580.04169	997.32843	-1146.61304	-584.40112	974.60046	-889.98285	-791.16437	1033.01172	-1068.04846	-797.50043	1025.98242	-954.33508	-627.32159	680.33917	-1198.4458	-652.84009	477.15976	-1165.00049	-706.0957	288.0025	-1160.91333	-696.76349	66.13657	-1119.17676	-732.32526	38.23734	-1067.83484	-539.58575	32.06715	-1130.80835	-622.85614	667.5592	-811.90985	-592.30115	474.0174	-824.66608	-733.03461	359.10452	-830.71704	-862.69458	218.91551	-869.7677	-909.52283	188.52811	-935.22559	-795.32758	80.11575	-823.4809	-733.19098	1796.59546	-994.21405	2845.71436	1033.97144	-3357.22559	NaN	NaN	NaN
58	0.57	-598.1004	1755.19019	-1068.96069	-613.00122	1741.40955	-927.00537	-706.00592	1651.35437	-1089.20447	-732.16003	1633.19275	-949.36395	-753.77277	1523.34985	-1006.495	-803.47351	1249.34888	-1004.63641	-611.79315	1458.57825	-1020.21619	-556.79736	1287.45654	-1013.63245	-806.1936	1349.05518	-941.7724	-683.38373	1499.91846	-1188.64722	-687.38293	1300.16602	-1278.59692	-680.87402	1161.35425	-1296.71997	-659.3623	1032.55359	-1317.32507	-593.62384	911.84369	-1291.19019	-638.38464	911.82678	-1326.20056	-612.42566	851.35504	-1334.36975	-667.39752	1491.92529	-822.0976	-686.33765	1299.34961	-738.60645	-664.01184	1153.1886	-724.88086	-619.54596	1040.06274	-711.36115	-554.42255	922.69562	-738.57764	-599.18896	911.13574	-704.4129	-553.29944	854.74957	-706.73071	-572.7276	997.6709	-1148.6969	-575.69519	976.63544	-892.32391	-783.07104	1033.26587	-1069.06165	-788.74432	1026.71411	-955.34802	-623.44012	679.93506	-1198.6748	-650.1958	476.97421	-1165.27319	-704.44995	288.14453	-1161.08875	-696.6228	66.35859	-1119.06848	-732.32544	38.58401	-1067.68933	-539.54407	32.03758	-1130.92566	-609.20508	669.89691	-813.05853	-574.77289	476.42606	-827.1178	-712.22021	357.16165	-833.59332	-836.60181	212.26971	-872.68188	-883.0752	180.02942	-938.03455	-763.77142	77.35525	-825.43097	-723.40222	1797.35291	-996.2655	2845.72412	1034.04895	-3357.38086	NaN	NaN	NaN
59	0.58	-588.19934	1755.71423	-1070.73584	-603.76416	1741.56311	-928.75037	-696.34692	1651.95203	-1091.14001	-723.00275	1633.76587	-951.41266	-744.52777	1524.05408	-1008.61432	-794.78424	1250.10278	-1006.83563	-602.69775	1458.99146	-1021.99969	-548.16821	1287.65015	-1015.61481	-797.52521	1349.97046	-944.06854	-673.53033	1501.03052	-1190.54626	-675.23676	1301.35095	-1280.75403	-666.8385	1162.47278	-1299.0686	-643.27399	1033.85547	-1318.66687	-576.03284	914.31409	-1291.16602	-620.15167	913.52655	-1327.00732	-593.00531	853.49561	-1334.63635	-658.9068	1492.51697	-823.93372	-677.75909	1299.89148	-740.2569	-657.15778	1153.75525	-726.15857	-613.07343	1040.52502	-712.47247	-547.83319	923.01898	-738.75201	-592.79309	911.50635	-704.97278	-546.70026	855.13739	-706.8902	-565.47058	997.79291	-1150.81262	-566.70221	978.45605	-894.69568	-775.08771	1033.51453	-1069.85803	-780.26837	1027.66797	-955.98865	-619.41431	679.30463	-1199.10449	-647.28131	476.70886	-1165.55261	-702.37213	288.40164	-1161.67017	-696.45276	66.29063	-1118.88403	-732.34259	38.66758	-1067.57471	-539.63837	31.95499	-1131.18945	-595.73846	672.07971	-814.07251	-557.81366	478.8479	-829.36877	-691.25452	354.68842	-836.13635	-810.27692	205.21298	-875.43323	-855.2074	170.22063	-940.65613	-731.15491	74.33555	-827.35773	-713.56891	1797.82043	-998.11475	2845.20435	1033.90222	-3360.28296	NaN	NaN	NaN
60	0.59	-578.29041	1755.98547	-1072.2345	-593.52612	1741.63721	-930.29889	-686.67035	1652.47168	-1092.89343	-713.33459	1634.0459	-953.17053	-735.20746	1524.63293	-1010.61652	-786.14886	1250.77905	-1008.76685	-593.59229	1459.23718	-1023.67163	-539.54376	1287.80005	-1017.52222	-788.16125	1350.19812	-946.32935	-663.73914	1501.81299	-1192.28186	-663.18573	1302.47278	-1282.86658	-653.06415	1163.54382	-1301.08691	-627.0979	1035.19019	-1320.02637	-558.48975	916.74854	-1291.05737	-601.82233	915.07782	-1327.71399	-573.67468	855.57111	-1334.57361	-650.39899	1492.45557	-825.99872	-670.25201	1300.27197	-741.92584	-650.80292	1154.25171	-727.2868	-606.82397	1040.49768	-713.18311	-541.45398	923.25378	-739.31519	-586.47388	911.8103	-705.44489	-540.53613	855.44775	-707.08038	-558.2547	997.74939	-1152.83606	-557.64545	979.91956	-897.15015	-767.06805	1033.77722	-1070.51196	-771.79547	1028.68396	-956.40216	-615.26849	679.04895	-1199.11084	-644.2511	476.44653	-1165.74609	-700.10608	288.29672	-1161.89087	-696.30847	66.37805	-1118.72363	-732.23962	38.78021	-1067.38965	-539.47833	31.77241	-1131.07886	-582.24658	674.15527	-815.0567	-541.01898	480.95197	-831.57275	-670.12177	351.70425	-838.27832	-783.00684	197.44279	-877.87354	-827.63745	160.85039	-943.0354	-698.15283	70.87469	-829.87195	-703.64905	1798.21082	-999.79645	2845.25024	1033.729	-3360.3291	NaN	NaN	NaN
61	0.6	-568.33118	1756.07605	-1073.55847	-584.14307	1741.62903	-931.53461	-676.96735	1652.90747	-1094.57532	-703.81342	1634.49548	-954.98126	-725.94806	1525.08179	-1012.53925	-777.38586	1251.23572	-1010.57837	-584.45319	1459.42542	-1025.37317	-530.88348	1287.75854	-1019.47241	-780.20007	1351.24609	-948.48663	-653.95508	1502.55713	-1194.04907	-651.28589	1303.44739	-1284.84473	-639.32837	1164.41833	-1303.20801	-611.02295	1036.41931	-1321.31201	-540.90894	919.24512	-1290.89978	-583.57648	916.92627	-1328.31555	-554.39984	857.71027	-1334.58533	-641.15546	1492.39905	-827.69464	-663.41388	1300.58826	-743.62286	-644.47528	1154.48584	-728.31891	-600.53296	1040.87427	-713.92108	-534.7619	923.27502	-739.17194	-580.30048	911.86993	-705.91089	-533.47705	855.56555	-707.03656	-551.00171	997.33911	-1154.80273	-549.22205	980.84167	-900.04742	-759.10022	1034.05652	-1070.98877	-763.55841	1029.83228	-956.5871	-610.84283	678.32837	-1199.89087	-641.28864	476.16953	-1165.79114	-698.05237	288.57999	-1162.17969	-696.13855	66.49794	-1118.52283	-732.07941	38.93954	-1067.15283	-539.39532	31.66953	-1131.11926	-568.78278	676.00623	-816.01428	-524.99786	483.0715	-833.3927	-648.7597	348.18832	-840.14716	-755.23792	189.35489	-880.01776	-797.80524	150.18492	-945.1402	-664.29138	67.44178	-832.40125	-693.67493	1798.56897	-1001.242	2845.15674	1033.80762	-3360.25073	NaN	NaN	NaN
